<svg data-v-fde0c5aa="" xmlns="http://www.w3.org/2000/svg" viewBox="0 0 300 300" class="iconLeftSlogan"><!----><defs data-v-fde0c5aa=""><!----></defs><rect data-v-fde0c5aa="" fill="transparent" x="0" y="0" width="300px" height="300px" class="logo-background-square"></rect><defs data-v-fde0c5aa=""><!----></defs><g data-v-fde0c5aa="" id="7cfc09f0-3be4-4dd9-b831-bd8c5d81ac16" fill="#000000" transform="matrix(2.1567237028754964,0,0,2.1567237028754964,106.7863479728957,119.34937044212653)"><path d="M1.26 11.89L1.26 11.89C2.06 12.52 3.33 13.27 4.84 13.29L4.84 13.29C5.84 13.29 6.75 12.99 7.43 12.49L7.43 12.49C8.13 11.98 8.64 11.21 8.64 10.32L8.64 10.32C8.64 9.88 8.51 9.46 8.30 9.13L8.30 9.13C7.98 8.61 7.48 8.25 6.90 7.97L6.90 7.97C6.34 7.70 5.68 7.52 4.97 7.38L4.97 7.38L4.94 7.38L4.94 7.38C4.19 7.24 3.56 7.01 3.19 6.76L3.19 6.76C3.01 6.64 2.88 6.51 2.81 6.40L2.81 6.40C2.74 6.29 2.72 6.17 2.72 6.01L2.72 6.01C2.72 5.71 2.87 5.40 3.25 5.12L3.25 5.12C3.63 4.84 4.19 4.65 4.82 4.65L4.82 4.65C5.67 4.65 6.36 5.07 7.07 5.54L7.07 5.54C7.41 5.77 7.85 5.67 8.06 5.33L8.06 5.33C8.29 5.01 8.19 4.56 7.87 4.34L7.87 4.34C7.15 3.88 6.16 3.22 4.82 3.22L4.82 3.22C3.91 3.22 3.05 3.49 2.39 3.96L2.39 3.96C1.75 4.44 1.27 5.17 1.27 6.01L1.27 6.01C1.27 6.43 1.39 6.82 1.60 7.15L1.60 7.15C1.90 7.64 2.37 7.99 2.90 8.25L2.90 8.25C3.43 8.50 4.05 8.67 4.70 8.79L4.70 8.79L4.73 8.79L4.73 8.79C5.56 8.95 6.24 9.18 6.65 9.45L6.65 9.45C6.86 9.59 6.99 9.73 7.07 9.87L7.07 9.87C7.15 10.01 7.20 10.14 7.20 10.32L7.20 10.32C7.20 10.67 7.01 11.02 6.59 11.33L6.59 11.33C6.17 11.63 5.54 11.84 4.84 11.84L4.84 11.84C3.85 11.86 2.79 11.27 2.17 10.77L2.17 10.77C1.86 10.51 1.40 10.56 1.15 10.86L1.15 10.86C0.91 11.17 0.95 11.63 1.26 11.89ZM12.19 9.37C12.21 8.54 12.87 7.87 13.69 7.85C14.53 7.87 15.20 8.54 15.20 9.37L15.20 12.53C15.20 12.96 15.54 13.30 15.97 13.30C16.41 13.30 16.74 12.96 16.74 12.53L16.74 9.37C16.74 7.69 15.39 6.30 13.69 6.30C13.15 6.30 12.64 6.47 12.19 6.71L12.19 4.27C12.19 3.84 11.84 3.50 11.41 3.50C10.99 3.50 10.64 3.84 10.64 4.27L10.64 12.53C10.64 12.60 10.65 12.67 10.67 12.73C10.77 13.05 11.06 13.30 11.41 13.30C11.84 13.30 12.19 12.96 12.19 12.53L12.19 9.37ZM22.27 13.34C22.27 13.34 22.27 13.34 22.27 13.34C23.20 13.34 24.04 12.94 24.61 12.28C25.24 11.66 25.59 10.79 25.59 9.81L25.59 9.81C25.59 8.86 25.24 8.04 24.61 7.36C24.04 6.71 23.20 6.30 22.27 6.30C21.31 6.30 20.50 6.71 19.87 7.36C19.26 8.04 18.90 8.86 18.90 9.81C18.90 10.79 19.26 11.66 19.87 12.28C20.50 12.94 21.31 13.34 22.27 13.34ZM20.93 8.36C21.28 8.05 21.74 7.83 22.27 7.83C22.76 7.83 23.21 8.05 23.56 8.36C23.91 8.74 24.11 9.24 24.11 9.81L24.11 9.81C24.11 10.42 23.91 10.91 23.56 11.30C23.21 11.63 22.76 11.82 22.27 11.82C21.74 11.82 21.28 11.63 20.93 11.30C20.61 10.91 20.43 10.42 20.43 9.81C20.43 9.24 20.61 8.74 20.93 8.36ZM28.71 15.93C29.16 15.93 29.51 15.57 29.51 15.18L29.51 12.71C30.02 13.08 30.69 13.29 31.39 13.29C33.25 13.29 34.78 11.73 34.78 9.81C34.78 7.90 33.25 6.30 31.39 6.30C30.67 6.30 30.00 6.54 29.48 6.87C29.43 6.57 29.11 6.30 28.71 6.30C28.31 6.30 27.97 6.64 27.97 7.04L27.97 9.81C27.97 9.81 27.97 9.81 27.97 9.81C27.97 9.83 27.97 9.83 27.97 9.83L27.97 15.18C27.97 15.57 28.31 15.93 28.71 15.93ZM30.06 8.40C30.41 8.02 30.87 7.83 31.39 7.83C31.86 7.83 32.34 8.02 32.70 8.40C33.03 8.76 33.25 9.27 33.25 9.81C33.25 10.36 33.03 10.89 32.70 11.21C32.34 11.61 31.86 11.80 31.39 11.80C30.87 11.80 30.41 11.61 30.06 11.21C29.69 10.89 29.51 10.36 29.51 9.81C29.51 9.27 29.69 8.76 30.06 8.40ZM42.34 13.30C42.34 13.30 42.35 13.29 42.35 13.29C42.35 13.29 42.35 13.30 42.38 13.30L46.91 13.30C47.32 13.30 47.68 12.95 47.68 12.53C47.68 12.10 47.32 11.75 46.91 11.75L43.12 11.75L43.12 9.17L46.38 9.17C46.80 9.17 47.15 8.82 47.15 8.39C47.15 7.98 46.80 7.62 46.38 7.62L43.12 7.62L43.12 5.05L46.91 5.05C47.32 5.05 47.68 4.70 47.68 4.27C47.68 3.84 47.32 3.50 46.91 3.50L42.38 3.50C42.35 3.50 42.35 3.50 42.35 3.50C42.35 3.50 42.34 3.50 42.34 3.50C41.90 3.50 41.57 3.84 41.57 4.27L41.57 12.53C41.57 12.95 41.90 13.30 42.34 13.30ZM55.64 7.06C55.64 6.64 55.30 6.30 54.89 6.30C54.53 6.30 54.25 6.57 54.17 6.92C53.63 6.54 53.00 6.30 52.30 6.30C51.35 6.30 50.53 6.71 49.92 7.35C49.32 7.98 48.97 8.85 48.97 9.81C48.97 10.77 49.32 11.63 49.92 12.28C50.53 12.91 51.35 13.30 52.30 13.30C52.30 13.30 52.30 13.30 52.30 13.30C53.00 13.30 53.63 13.08 54.17 12.70C54.25 13.03 54.53 13.30 54.89 13.30C55.30 13.30 55.64 12.96 55.64 12.56L55.64 9.81C55.64 9.81 55.64 9.81 55.64 9.81C55.64 9.81 55.64 9.81 55.64 9.81L55.64 7.06ZM53.61 11.26C53.27 11.61 52.79 11.80 52.30 11.80C51.80 11.80 51.32 11.61 51.00 11.26C50.67 10.89 50.47 10.39 50.47 9.81C50.47 9.23 50.67 8.72 51.00 8.37C51.32 7.99 51.80 7.80 52.30 7.80C52.79 7.80 53.27 7.99 53.61 8.37C53.94 8.72 54.15 9.23 54.15 9.81C54.15 10.39 53.94 10.89 53.61 11.26ZM58.14 12.33L58.14 12.33C58.70 12.78 59.54 13.29 60.63 13.30L60.63 13.30C61.32 13.30 61.95 13.09 62.45 12.74L62.45 12.74C62.96 12.38 63.34 11.80 63.34 11.12L63.34 11.12C63.34 10.79 63.24 10.47 63.07 10.19L63.07 10.19C62.83 9.80 62.45 9.53 62.08 9.37L62.08 9.37C61.67 9.17 61.24 9.04 60.77 8.96L60.76 8.96L60.75 8.95L60.75 8.95C60.27 8.86 59.91 8.74 59.72 8.61L59.72 8.61C59.63 8.55 59.58 8.50 59.57 8.47L59.57 8.47C59.54 8.43 59.54 8.41 59.54 8.36L59.54 8.36C59.54 8.29 59.58 8.16 59.77 8.04L59.77 8.04C59.95 7.90 60.26 7.78 60.61 7.78L60.61 7.78C61.05 7.78 61.45 8.01 61.89 8.30L61.89 8.30C62.24 8.54 62.71 8.44 62.93 8.11L62.93 8.11C63.14 7.76 63.04 7.29 62.71 7.07L62.71 7.07L62.71 7.07C62.26 6.76 61.57 6.30 60.61 6.30L60.61 6.30C59.96 6.30 59.37 6.48 58.88 6.82L58.88 6.82C58.42 7.17 58.06 7.71 58.06 8.36L58.06 8.36C58.06 8.68 58.14 8.99 58.30 9.24L58.30 9.24C58.55 9.62 58.88 9.87 59.26 10.05L59.26 10.05C59.63 10.22 60.05 10.33 60.48 10.42L60.49 10.42L60.49 10.42L60.49 10.42L60.49 10.42C61.00 10.51 61.42 10.67 61.61 10.81L61.61 10.81C61.73 10.88 61.78 10.93 61.80 10.98L61.80 10.98C61.82 11.02 61.84 11.05 61.84 11.12L61.84 11.12C61.84 11.23 61.78 11.37 61.59 11.54L61.59 11.54C61.36 11.68 61.01 11.80 60.63 11.80L60.63 11.80C60.09 11.82 59.46 11.49 59.09 11.19L59.09 11.19C58.79 10.92 58.30 10.96 58.04 11.30L58.04 11.30C57.79 11.61 57.83 12.08 58.14 12.33ZM70.28 6.30C69.86 6.30 69.55 6.62 69.55 7.04L69.55 10.35C69.55 11.16 68.91 11.77 68.11 11.77C67.31 11.77 66.65 11.16 66.65 10.35L66.65 7.04C66.65 6.62 66.35 6.30 65.91 6.30C65.53 6.30 65.18 6.62 65.18 7.04L65.18 10.35C65.18 11.96 66.50 13.29 68.11 13.29C68.57 13.29 69.05 13.17 69.44 12.95C69.22 13.68 68.52 14.21 67.69 14.22C67.41 14.22 67.14 14.15 66.88 14.03C66.54 13.85 66.07 14 65.88 14.34C65.72 14.73 65.86 15.16 66.25 15.33C66.67 15.54 67.19 15.68 67.69 15.68C69.55 15.68 71.04 14.21 71.04 12.33L71.04 10.35C71.04 10.35 71.04 10.35 71.04 10.35L71.04 7.04C71.04 6.62 70.69 6.30 70.28 6.30Z"></path></g><defs data-v-fde0c5aa=""><linearGradient data-v-fde0c5aa="" gradientTransform="rotate(25)" id="6413ba00-f38b-4bf4-aeae-e89c522aad25" x1="0%" y1="0%" x2="100%" y2="0%"><stop data-v-fde0c5aa="" offset="0%" stop-color="#41E296" stop-opacity="1"></stop><stop data-v-fde0c5aa="" offset="100%" stop-color="#00C4EE" stop-opacity="1"></stop></linearGradient></defs><g data-v-fde0c5aa="" id="68c8df9e-7de2-478b-8614-f847a54f06c1" stroke="none" fill="url(#6413ba00-f38b-4bf4-aeae-e89c522aad25)" transform="matrix(1.7478784744283946,0,0,1.7478784744283946,40,122.03394440914569)"><circle cx="16" cy="16.021" r="8.066"></circle><path d="M32 0H0v32h32V0zM16 26.086c-5.551 0-10.066-4.516-10.066-10.065 0-5.55 4.516-10.066 10.066-10.066 5.55 0 10.065 4.516 10.065 10.066.001 5.55-4.515 10.065-10.065 10.065z"></path></g><defs data-v-fde0c5aa=""><!----></defs><g data-v-fde0c5aa="" id="8c9ede0d-39d3-4b26-a69a-854a822b2b10" fill="#000000" transform="matrix(0.687046959539612,0,0,0.687046959539612,108.45117831822112,161.08833029637725)"><path d="M12.57 4.44C12.75 4.42 12.85 4.34 12.85 4.19L12.85 3.92L11.68 3.92L11.17 3.92C11.10 3.92 11.06 3.92 11.02 3.93C10.98 3.95 10.95 3.99 10.91 4.05L7.01 10.92C6.97 10.99 6.94 11.06 6.92 11.13C6.89 11.20 6.86 11.28 6.83 11.35C6.78 11.20 6.72 11.06 6.65 10.93L2.65 4.05C2.60 3.99 2.58 3.95 2.53 3.93C2.49 3.92 2.45 3.92 2.38 3.92L1.89 3.92L0.70 3.92L0.70 4.19C0.70 4.34 0.80 4.42 0.98 4.44L1.12 4.44C1.19 4.44 1.29 4.45 1.43 4.45C1.57 4.45 1.72 4.47 1.89 4.47L1.89 13.26C1.72 13.26 1.57 13.27 1.43 13.27C1.29 13.27 1.19 13.29 1.12 13.29L0.98 13.29C0.80 13.30 0.70 13.38 0.70 13.54L0.70 13.82L1.89 13.82L2.51 13.82L3.72 13.82L3.72 13.54C3.72 13.38 3.63 13.30 3.44 13.29L3.30 13.29C3.23 13.29 3.12 13.27 2.98 13.27C2.84 13.27 2.67 13.26 2.51 13.26L2.51 5.38C2.51 5.25 2.51 5.12 2.49 4.98L6.50 11.91C6.57 12.04 6.66 12.10 6.78 12.10L6.89 12.10C7.01 12.10 7.10 12.04 7.17 11.91L11.06 4.98C11.05 5.12 11.05 5.25 11.05 5.38L11.05 13.26C10.88 13.26 10.71 13.27 10.57 13.27C10.43 13.27 10.32 13.29 10.25 13.29L10.11 13.29C9.93 13.30 9.83 13.38 9.83 13.54L9.83 13.82L11.05 13.82L11.68 13.82L12.85 13.82L12.85 13.54C12.85 13.38 12.75 13.30 12.57 13.29L12.45 13.29C12.38 13.29 12.26 13.27 12.12 13.27C11.98 13.27 11.84 13.26 11.68 13.26L11.68 4.47C11.84 4.47 11.98 4.45 12.12 4.45C12.26 4.45 12.38 4.44 12.45 4.44ZM30.49 13.22L30.03 13.17L26.25 3.91L25.54 3.91L21.74 13.17L21.29 13.22C21.11 13.23 21.03 13.33 21.03 13.50L21.03 13.82L21.48 13.82L21.77 13.82L22.02 13.82L22.12 13.82L23.44 13.82L23.44 13.50C23.44 13.31 23.32 13.23 23.11 13.22C23.10 13.22 23.07 13.20 23.03 13.20C22.99 13.20 22.93 13.19 22.83 13.19C22.74 13.19 22.61 13.19 22.47 13.17L23.45 10.75L23.52 10.57L28.25 10.57L28.32 10.75L29.30 13.17C29.16 13.19 29.05 13.19 28.95 13.19C28.85 13.19 28.78 13.20 28.74 13.20C28.70 13.20 28.67 13.22 28.66 13.22C28.45 13.23 28.34 13.31 28.34 13.50L28.34 13.82L29.65 13.82L29.75 13.82L30.02 13.82L30.30 13.82L30.76 13.82L30.76 13.50C30.76 13.33 30.67 13.23 30.49 13.22ZM25.69 5.22C25.72 5.14 25.76 5.04 25.79 4.94C25.82 4.84 25.86 4.75 25.89 4.63C25.91 4.75 25.96 4.84 25.98 4.94C26.01 5.04 26.05 5.12 26.08 5.21L28.04 10.04L23.74 10.04ZM47.49 13.29L47.40 13.29L47.22 13.29C47.14 13.29 47.04 13.27 46.94 13.27L42.91 9.06C42.83 8.96 42.76 8.89 42.67 8.83C42.59 8.78 42.50 8.74 42.41 8.71C42.49 8.68 42.56 8.64 42.63 8.58C42.70 8.53 42.78 8.46 42.87 8.36L46.66 4.45L46.93 4.45C47.01 4.45 47.07 4.44 47.11 4.44L47.19 4.44C47.38 4.42 47.47 4.34 47.47 4.19L47.47 3.91L46.49 3.91L46.37 3.91L44.56 3.91L44.56 4.19C44.56 4.34 44.66 4.42 44.84 4.44L45.01 4.44C45.11 4.44 45.23 4.45 45.40 4.45L45.85 4.45L42.18 8.22C42.13 8.27 42.07 8.33 42.03 8.36C41.99 8.39 41.93 8.40 41.87 8.43C41.82 8.44 41.78 8.47 41.71 8.47C41.64 8.48 41.55 8.48 41.47 8.48L40.88 8.48L40.88 4.45C41.05 4.45 41.20 4.44 41.34 4.44C41.48 4.44 41.58 4.42 41.65 4.42L41.79 4.42C41.97 4.41 42.06 4.33 42.06 4.17L42.06 3.91L40.88 3.91L40.17 3.91L38.99 3.91L38.99 4.17C38.99 4.33 39.09 4.41 39.27 4.42L39.40 4.42C39.47 4.42 39.58 4.44 39.72 4.44C39.86 4.44 40.00 4.45 40.17 4.45L40.17 13.26C40.00 13.26 39.86 13.27 39.72 13.27C39.58 13.27 39.47 13.29 39.40 13.29L39.27 13.29C39.09 13.30 38.99 13.38 38.99 13.54L38.99 13.82L40.17 13.82L40.88 13.82L42.06 13.82L42.06 13.54C42.06 13.38 41.97 13.30 41.79 13.29L41.65 13.29C41.58 13.29 41.48 13.27 41.34 13.27C41.20 13.27 41.05 13.26 40.88 13.26L40.88 9.04L41.52 9.04C41.64 9.04 41.73 9.04 41.80 9.06C41.87 9.07 41.93 9.09 41.99 9.11C42.04 9.14 42.10 9.17 42.14 9.21C42.18 9.25 42.22 9.28 42.28 9.34L46.13 13.27C45.99 13.27 45.82 13.29 45.65 13.29L45.25 13.29L45.07 13.29C44.88 13.30 44.79 13.38 44.79 13.54L44.79 13.82L46.66 13.82L46.72 13.82L46.89 13.82L47.47 13.82L47.77 13.82L47.77 13.54C47.77 13.38 47.67 13.30 47.49 13.29ZM57.23 3.92L56.04 3.92L56.04 4.19C56.04 4.34 56.14 4.42 56.32 4.44L56.46 4.44C56.53 4.44 56.63 4.45 56.77 4.45C56.91 4.45 57.06 4.47 57.23 4.47L57.23 13.26C57.06 13.26 56.91 13.27 56.77 13.27C56.63 13.27 56.53 13.29 56.46 13.29L56.32 13.29C56.14 13.30 56.06 13.38 56.06 13.54L56.06 13.82L57.23 13.82L63.17 13.82L63.17 13.22L63.17 11.76L62.82 11.76C62.62 11.76 62.54 11.89 62.52 12.11C62.52 12.14 62.51 12.19 62.51 12.29C62.51 12.39 62.51 12.53 62.50 12.74C62.48 12.95 62.47 13.09 62.47 13.22L57.95 13.22L57.95 9.09L61.89 9.09L61.89 8.51L57.95 8.51L57.95 4.51L62.47 4.51C62.50 5.12 62.52 5.50 62.52 5.63C62.54 5.85 62.62 5.96 62.82 5.96L63.17 5.96L63.17 4.51L63.17 3.92ZM77.48 9.91C77.34 9.65 77.14 9.39 76.90 9.21C76.66 9.03 76.41 8.88 76.12 8.75C75.82 8.62 75.50 8.51 75.19 8.41C74.89 8.32 74.58 8.20 74.28 8.11C73.99 7.99 73.72 7.87 73.49 7.71C73.25 7.56 73.07 7.38 72.93 7.15C72.79 6.93 72.70 6.65 72.70 6.31C72.70 6.06 72.76 5.82 72.86 5.59C72.95 5.35 73.09 5.15 73.28 4.97C73.46 4.79 73.68 4.65 73.96 4.55C74.24 4.45 74.55 4.40 74.91 4.40C75.59 4.40 76.20 4.51 76.76 4.75C76.80 5.54 76.83 5.99 76.83 6.06C76.85 6.29 76.93 6.41 77.13 6.41L77.46 6.41L77.46 4.38C76.58 4.00 75.74 3.81 74.91 3.81C74.45 3.81 74.05 3.88 73.68 4.02C73.32 4.16 73.02 4.34 72.79 4.58C72.55 4.82 72.35 5.08 72.23 5.39C72.10 5.70 72.04 6.02 72.04 6.36C72.04 6.78 72.11 7.14 72.25 7.42C72.39 7.70 72.59 7.92 72.83 8.12C73.07 8.32 73.32 8.46 73.61 8.58C73.91 8.71 74.23 8.82 74.54 8.92C74.84 9.02 75.14 9.11 75.45 9.21C75.74 9.31 76.01 9.45 76.24 9.60C76.48 9.76 76.66 9.94 76.80 10.16C76.94 10.39 77.01 10.68 77.01 11.03C77.01 11.35 76.96 11.66 76.85 11.94C76.73 12.22 76.58 12.46 76.37 12.67C76.16 12.88 75.89 13.05 75.59 13.16C75.28 13.29 74.93 13.33 74.54 13.33C73.75 13.33 73.09 13.20 72.56 12.95C72.55 12.75 72.55 12.54 72.53 12.32C72.52 12.10 72.52 11.91 72.51 11.76C72.49 11.61 72.49 11.52 72.49 11.51C72.48 11.28 72.38 11.17 72.18 11.17L71.85 11.17L71.85 13.02L71.85 13.20L71.85 13.38C72.70 13.75 73.58 13.93 74.51 13.93C75.01 13.93 75.46 13.85 75.85 13.69C76.24 13.54 76.58 13.31 76.85 13.05C77.11 12.78 77.34 12.46 77.48 12.10C77.62 11.73 77.69 11.34 77.69 10.92C77.69 10.51 77.62 10.18 77.48 9.91ZM102.69 11.97C102.49 11.97 102.41 12.08 102.40 12.31C102.40 12.32 102.40 12.38 102.38 12.43C102.37 12.49 102.37 12.59 102.35 12.71C102.34 12.84 102.33 13.01 102.31 13.20L98.22 13.20L98.22 4.47C98.39 4.47 98.53 4.45 98.67 4.45C98.81 4.45 98.92 4.44 98.99 4.44L99.12 4.44C99.30 4.42 99.40 4.34 99.40 4.19L99.40 3.92L98.22 3.92L97.51 3.92L96.32 3.92L96.32 4.19C96.32 4.34 96.42 4.42 96.60 4.44L96.74 4.44C96.81 4.44 96.91 4.45 97.05 4.45C97.19 4.45 97.34 4.47 97.51 4.47L97.51 13.26C97.34 13.26 97.19 13.27 97.05 13.27C96.91 13.27 96.81 13.29 96.74 13.29L96.60 13.29C96.42 13.30 96.32 13.38 96.32 13.54L96.32 13.82L97.51 13.82L102.79 13.82L102.91 13.82L103.04 13.82L103.04 13.55L103.04 12.99L103.04 11.97L102.76 11.97ZM114.28 4.44C114.46 4.42 114.55 4.34 114.55 4.19L114.55 3.91L113.37 3.91L112.66 3.91L111.47 3.91L111.47 4.19C111.47 4.34 111.57 4.42 111.75 4.44L111.89 4.44C111.96 4.44 112.06 4.45 112.20 4.45C112.34 4.45 112.49 4.47 112.66 4.47L112.66 13.26C112.49 13.26 112.34 13.27 112.20 13.27C112.06 13.27 111.96 13.29 111.89 13.29L111.75 13.29C111.57 13.30 111.47 13.38 111.47 13.54L111.47 13.82L112.66 13.82L113.37 13.82L114.55 13.82L114.55 13.54C114.55 13.38 114.46 13.30 114.28 13.29L114.14 13.29C114.07 13.29 113.97 13.27 113.83 13.27C113.69 13.27 113.54 13.26 113.37 13.26L113.37 4.47C113.54 4.47 113.69 4.45 113.83 4.45C113.97 4.45 114.07 4.44 114.14 4.44ZM130.02 3.92L129.67 3.92L124.08 3.92L122.89 3.92L122.89 4.19C122.89 4.34 122.99 4.42 123.17 4.44L123.31 4.44C123.38 4.44 123.48 4.45 123.62 4.45C123.76 4.45 123.91 4.47 124.08 4.47L124.08 13.26C123.91 13.26 123.76 13.27 123.62 13.27C123.48 13.27 123.38 13.29 123.31 13.29L123.17 13.29C122.99 13.30 122.89 13.38 122.89 13.54L122.89 13.82L124.08 13.82L124.80 13.82L125.97 13.82L125.97 13.54C125.97 13.38 125.89 13.30 125.71 13.29L125.57 13.29C125.50 13.29 125.40 13.27 125.26 13.27C125.12 13.27 124.96 13.26 124.80 13.26L124.80 9.27L128.49 9.27L128.49 8.67L124.80 8.67L124.80 4.51L129.40 4.51C129.43 5.18 129.46 5.56 129.46 5.63C129.47 5.85 129.57 5.96 129.77 5.96L130.10 5.96L130.10 3.92ZM139.41 3.92L138.22 3.92L138.22 4.19C138.22 4.34 138.32 4.42 138.50 4.44L138.64 4.44C138.71 4.44 138.81 4.45 138.95 4.45C139.09 4.45 139.24 4.47 139.41 4.47L139.41 13.26C139.24 13.26 139.09 13.27 138.95 13.27C138.81 13.27 138.71 13.29 138.64 13.29L138.50 13.29C138.32 13.30 138.24 13.38 138.24 13.54L138.24 13.82L139.41 13.82L145.35 13.82L145.35 13.22L145.35 11.76L145.00 11.76C144.80 11.76 144.72 11.89 144.70 12.11C144.70 12.14 144.69 12.19 144.69 12.29C144.69 12.39 144.69 12.53 144.68 12.74C144.66 12.95 144.65 13.09 144.65 13.22L140.13 13.22L140.13 9.09L144.07 9.09L144.07 8.51L140.13 8.51L140.13 4.51L144.65 4.51C144.68 5.12 144.70 5.50 144.70 5.63C144.72 5.85 144.80 5.96 145.00 5.96L145.35 5.96L145.35 4.51L145.35 3.92ZM165.49 3.92L164.30 3.92L164.30 4.19C164.30 4.34 164.40 4.42 164.58 4.44L164.72 4.44C164.79 4.44 164.89 4.45 165.03 4.45C165.17 4.45 165.33 4.47 165.49 4.47L165.49 13.26C165.33 13.26 165.17 13.27 165.03 13.27C164.89 13.27 164.79 13.29 164.72 13.29L164.58 13.29C164.40 13.30 164.32 13.38 164.32 13.54L164.32 13.82L165.49 13.82L171.43 13.82L171.43 13.22L171.43 11.76L171.08 11.76C170.88 11.76 170.80 11.89 170.79 12.11C170.79 12.14 170.77 12.19 170.77 12.29C170.77 12.39 170.77 12.53 170.76 12.74C170.74 12.95 170.73 13.09 170.73 13.22L166.21 13.22L166.21 9.09L170.16 9.09L170.16 8.51L166.21 8.51L166.21 4.51L170.73 4.51C170.76 5.12 170.79 5.50 170.79 5.63C170.80 5.85 170.88 5.96 171.08 5.96L171.43 5.96L171.43 4.51L171.43 3.92ZM189.31 13.22L188.85 13.17L185.07 3.91L184.35 3.91L180.56 13.17L180.11 13.22C179.93 13.23 179.84 13.33 179.84 13.50L179.84 13.82L180.29 13.82L180.59 13.82L180.84 13.82L180.94 13.82L182.25 13.82L182.25 13.50C182.25 13.31 182.14 13.23 181.93 13.22C181.92 13.22 181.89 13.20 181.85 13.20C181.80 13.20 181.75 13.19 181.65 13.19C181.55 13.19 181.43 13.19 181.29 13.17L182.27 10.75L182.34 10.57L187.07 10.57L187.14 10.75L188.12 13.17C187.98 13.19 187.87 13.19 187.77 13.19C187.67 13.19 187.60 13.20 187.56 13.20C187.52 13.20 187.49 13.22 187.47 13.22C187.26 13.23 187.15 13.31 187.15 13.50L187.15 13.82L188.47 13.82L188.57 13.82L188.83 13.82L189.11 13.82L189.57 13.82L189.57 13.50C189.57 13.33 189.49 13.23 189.31 13.22ZM184.51 5.22C184.53 5.14 184.58 5.04 184.60 4.94C184.63 4.84 184.67 4.75 184.70 4.63C184.73 4.75 184.77 4.84 184.80 4.94C184.83 5.04 184.87 5.12 184.90 5.21L186.86 10.04L182.56 10.04ZM203.53 9.91C203.39 9.65 203.20 9.39 202.96 9.21C202.72 9.03 202.47 8.88 202.17 8.75C201.88 8.62 201.56 8.51 201.25 8.41C200.94 8.32 200.63 8.20 200.34 8.11C200.05 7.99 199.78 7.87 199.54 7.71C199.30 7.56 199.12 7.38 198.98 7.15C198.84 6.93 198.76 6.65 198.76 6.31C198.76 6.06 198.81 5.82 198.91 5.59C199.01 5.35 199.15 5.15 199.33 4.97C199.51 4.79 199.74 4.65 200.02 4.55C200.30 4.45 200.61 4.40 200.97 4.40C201.64 4.40 202.26 4.51 202.82 4.75C202.86 5.54 202.89 5.99 202.89 6.06C202.90 6.29 202.99 6.41 203.18 6.41L203.52 6.41L203.52 4.38C202.64 4.00 201.80 3.81 200.97 3.81C200.51 3.81 200.10 3.88 199.74 4.02C199.37 4.16 199.08 4.34 198.84 4.58C198.60 4.82 198.41 5.08 198.28 5.39C198.16 5.70 198.10 6.02 198.10 6.36C198.10 6.78 198.17 7.14 198.31 7.42C198.45 7.70 198.65 7.92 198.88 8.12C199.12 8.32 199.37 8.46 199.67 8.58C199.96 8.71 200.28 8.82 200.59 8.92C200.90 9.02 201.19 9.11 201.50 9.21C201.80 9.31 202.06 9.45 202.30 9.60C202.54 9.76 202.72 9.94 202.86 10.16C203.00 10.39 203.07 10.68 203.07 11.03C203.07 11.35 203.01 11.66 202.90 11.94C202.79 12.22 202.64 12.46 202.43 12.67C202.22 12.88 201.95 13.05 201.64 13.16C201.33 13.29 200.98 13.33 200.59 13.33C199.81 13.33 199.15 13.20 198.62 12.95C198.60 12.75 198.60 12.54 198.59 12.32C198.58 12.10 198.58 11.91 198.56 11.76C198.55 11.61 198.55 11.52 198.55 11.51C198.53 11.28 198.44 11.17 198.24 11.17L197.90 11.17L197.90 13.02L197.90 13.20L197.90 13.38C198.76 13.75 199.64 13.93 200.56 13.93C201.07 13.93 201.52 13.85 201.91 13.69C202.30 13.54 202.64 13.31 202.90 13.05C203.17 12.78 203.39 12.46 203.53 12.10C203.67 11.73 203.74 11.34 203.74 10.92C203.74 10.51 203.67 10.18 203.53 9.91ZM220.14 3.92L220.07 3.92L219.51 3.92L219.39 3.92L217.99 3.92L217.99 4.19C217.99 4.34 218.09 4.42 218.27 4.44L218.39 4.44C218.44 4.44 218.51 4.45 218.62 4.45C218.74 4.45 218.86 4.47 219.00 4.47L216.41 8.64C216.34 8.75 216.29 8.85 216.24 8.95C216.20 9.04 216.16 9.16 216.12 9.25C216.08 9.16 216.03 9.04 215.99 8.95C215.95 8.85 215.89 8.75 215.82 8.64L213.22 4.47C213.36 4.47 213.49 4.45 213.60 4.45C213.71 4.45 213.79 4.44 213.85 4.44L213.95 4.44C214.13 4.42 214.23 4.34 214.23 4.19L214.23 3.92L212.83 3.92L212.72 3.92L212.16 3.92L212.09 3.92L211.64 3.92L211.64 4.19C211.64 4.34 211.74 4.42 211.92 4.44C212.16 4.45 212.34 4.47 212.44 4.47L215.75 9.73L215.75 13.26C215.59 13.26 215.43 13.27 215.29 13.27C215.15 13.27 215.05 13.29 214.98 13.29L214.86 13.29C214.68 13.30 214.58 13.38 214.58 13.54L214.58 13.82L215.75 13.82L216.47 13.82L217.64 13.82L217.64 13.54C217.64 13.38 217.56 13.30 217.38 13.29L217.24 13.29C217.17 13.29 217.07 13.27 216.93 13.27C216.79 13.27 216.64 13.26 216.47 13.26L216.47 9.73L219.79 4.47C219.90 4.47 220.07 4.45 220.30 4.44C220.49 4.42 220.58 4.34 220.58 4.19L220.58 3.92Z"></path></g></svg>